<svg xmlns="http://www.w3.org/2000/svg" xmlns:xlink="http://www.w3.org/1999/xlink" xmlns:jfreesvg="http://www.jfree.org/jfreesvg/svg" width="800" height="600" text-rendering="auto" shape-rendering="auto">
    <defs><linearGradient id="1415337035637102gp16" x1="446.87" y1="0" x2="460" y2="0" gradientUnits="userSpaceOnUse"><stop offset="0%" stop-color="rgb(255,85,85)"/><stop offset="100%" stop-color="rgb(255,255,255)"/></linearGradient>
        <linearGradient id="1415337035637102gp7" x1="196" y1="0" x2="221.48" y2="0" gradientUnits="userSpaceOnUse"><stop offset="0%" stop-color="rgb(121,121,255)"/><stop offset="100%" stop-color="rgb(85,85,255)"/></linearGradient>
        <linearGradient id="1415337035637102gp14" x1="296" y1="0" x2="373" y2="0" gradientUnits="userSpaceOnUse"><stop offset="0%" stop-color="rgb(85,85,255)"/><stop offset="100%" stop-color="rgb(121,121,255)"/></linearGradient>
        <linearGradient id="1415337035637102gp12" x1="270.21" y1="0" x2="283" y2="0" gradientUnits="userSpaceOnUse"><stop offset="0%" stop-color="rgb(85,85,255)"/><stop offset="100%" stop-color="rgb(255,255,255)"/></linearGradient>
        <linearGradient id="1415337035637102gp25" x1="636" y1="0" x2="649" y2="0" gradientUnits="userSpaceOnUse"><stop offset="0%" stop-color="rgb(255,255,255)"/><stop offset="100%" stop-color="rgb(255,85,85)"/></linearGradient>
        <linearGradient id="1415337035637102gp3" x1="196" y1="0" x2="221.48" y2="0" gradientUnits="userSpaceOnUse"><stop offset="0%" stop-color="rgb(255,121,121)"/><stop offset="100%" stop-color="rgb(255,85,85)"/></linearGradient>
        <linearGradient id="1415337035637102gp10" x1="296" y1="0" x2="373" y2="0" gradientUnits="userSpaceOnUse"><stop offset="0%" stop-color="rgb(255,85,85)"/><stop offset="100%" stop-color="rgb(255,121,121)"/></linearGradient>
        <linearGradient id="1415337035637102gp9" x1="283" y1="0" x2="296" y2="0" gradientUnits="userSpaceOnUse"><stop offset="0%" stop-color="rgb(255,255,255)"/><stop offset="100%" stop-color="rgb(255,85,85)"/></linearGradient>
        <linearGradient id="1415337035637102gp26" x1="649" y1="0" x2="726" y2="0" gradientUnits="userSpaceOnUse"><stop offset="0%" stop-color="rgb(255,85,85)"/><stop offset="100%" stop-color="rgb(255,121,121)"/></linearGradient>
        <linearGradient id="1415337035637102gp30" x1="649" y1="0" x2="726" y2="0" gradientUnits="userSpaceOnUse"><stop offset="0%" stop-color="rgb(85,85,255)"/><stop offset="100%" stop-color="rgb(121,121,255)"/></linearGradient>
        <linearGradient id="1415337035637102gp29" x1="636" y1="0" x2="649" y2="0" gradientUnits="userSpaceOnUse"><stop offset="0%" stop-color="rgb(255,255,255)"/><stop offset="100%" stop-color="rgb(85,85,255)"/></linearGradient>
        <linearGradient id="1415337035637102gp27" x1="726" y1="0" x2="751.45" y2="0" gradientUnits="userSpaceOnUse"><stop offset="0%" stop-color="rgb(255,121,121)"/><stop offset="100%" stop-color="rgb(255,85,85)"/></linearGradient>
        <linearGradient id="1415337035637102gp8" x1="270.21" y1="0" x2="283" y2="0" gradientUnits="userSpaceOnUse"><stop offset="0%" stop-color="rgb(255,85,85)"/><stop offset="100%" stop-color="rgb(255,255,255)"/></linearGradient>
        <linearGradient id="1415337035637102gp11" x1="373" y1="0" x2="398.13" y2="0" gradientUnits="userSpaceOnUse"><stop offset="0%" stop-color="rgb(255,121,121)"/><stop offset="100%" stop-color="rgb(255,85,85)"/></linearGradient>
        <linearGradient id="1415337035637102gp15" x1="373" y1="0" x2="398.13" y2="0" gradientUnits="userSpaceOnUse"><stop offset="0%" stop-color="rgb(121,121,255)"/><stop offset="100%" stop-color="rgb(85,85,255)"/></linearGradient>
        <linearGradient id="1415337035637102gp20" x1="446.87" y1="0" x2="460" y2="0" gradientUnits="userSpaceOnUse"><stop offset="0%" stop-color="rgb(85,85,255)"/><stop offset="100%" stop-color="rgb(255,255,255)"/></linearGradient>
        <linearGradient id="1415337035637102gp5" x1="106" y1="0" x2="119" y2="0" gradientUnits="userSpaceOnUse"><stop offset="0%" stop-color="rgb(255,255,255)"/><stop offset="100%" stop-color="rgb(85,85,255)"/></linearGradient>
        <linearGradient id="1415337035637102gp31" x1="726" y1="0" x2="751.45" y2="0" gradientUnits="userSpaceOnUse"><stop offset="0%" stop-color="rgb(121,121,255)"/><stop offset="100%" stop-color="rgb(85,85,255)"/></linearGradient>
        <linearGradient id="1415337035637102gp4" x1="93.55" y1="0" x2="106" y2="0" gradientUnits="userSpaceOnUse"><stop offset="0%" stop-color="rgb(85,85,255)"/><stop offset="100%" stop-color="rgb(255,255,255)"/></linearGradient>
        <linearGradient id="1415337035637102gp1" x1="106" y1="0" x2="119" y2="0" gradientUnits="userSpaceOnUse"><stop offset="0%" stop-color="rgb(255,255,255)"/><stop offset="100%" stop-color="rgb(255,85,85)"/></linearGradient>
        <linearGradient id="1415337035637102gp0" x1="93.55" y1="0" x2="106" y2="0" gradientUnits="userSpaceOnUse"><stop offset="0%" stop-color="rgb(255,85,85)"/><stop offset="100%" stop-color="rgb(255,255,255)"/></linearGradient>
        <linearGradient id="1415337035637102gp13" x1="283" y1="0" x2="296" y2="0" gradientUnits="userSpaceOnUse"><stop offset="0%" stop-color="rgb(255,255,255)"/><stop offset="100%" stop-color="rgb(85,85,255)"/></linearGradient>
        <linearGradient id="1415337035637102gp28" x1="623.53" y1="0" x2="636" y2="0" gradientUnits="userSpaceOnUse"><stop offset="0%" stop-color="rgb(85,85,255)"/><stop offset="100%" stop-color="rgb(255,255,255)"/></linearGradient>
        <linearGradient id="1415337035637102gp24" x1="623.53" y1="0" x2="636" y2="0" gradientUnits="userSpaceOnUse"><stop offset="0%" stop-color="rgb(255,85,85)"/><stop offset="100%" stop-color="rgb(255,255,255)"/></linearGradient>
        <linearGradient id="1415337035637102gp18" x1="472" y1="0" x2="549" y2="0" gradientUnits="userSpaceOnUse"><stop offset="0%" stop-color="rgb(255,85,85)"/><stop offset="100%" stop-color="rgb(255,121,121)"/></linearGradient>
        <linearGradient id="1415337035637102gp19" x1="549" y1="0" x2="574.79" y2="0" gradientUnits="userSpaceOnUse"><stop offset="0%" stop-color="rgb(255,121,121)"/><stop offset="100%" stop-color="rgb(255,85,85)"/></linearGradient>
        <linearGradient id="1415337035637102gp2" x1="119" y1="0" x2="196" y2="0" gradientUnits="userSpaceOnUse"><stop offset="0%" stop-color="rgb(255,85,85)"/><stop offset="100%" stop-color="rgb(255,121,121)"/></linearGradient>
        <linearGradient id="1415337035637102gp21" x1="460" y1="0" x2="472" y2="0" gradientUnits="userSpaceOnUse"><stop offset="0%" stop-color="rgb(255,255,255)"/><stop offset="100%" stop-color="rgb(85,85,255)"/></linearGradient>
        <linearGradient id="1415337035637102gp22" x1="472" y1="0" x2="549" y2="0" gradientUnits="userSpaceOnUse"><stop offset="0%" stop-color="rgb(85,85,255)"/><stop offset="100%" stop-color="rgb(121,121,255)"/></linearGradient>
        <linearGradient id="1415337035637102gp23" x1="549" y1="0" x2="574.79" y2="0" gradientUnits="userSpaceOnUse"><stop offset="0%" stop-color="rgb(121,121,255)"/><stop offset="100%" stop-color="rgb(85,85,255)"/></linearGradient>
        <linearGradient id="1415337035637102gp6" x1="119" y1="0" x2="196" y2="0" gradientUnits="userSpaceOnUse"><stop offset="0%" stop-color="rgb(85,85,255)"/><stop offset="100%" stop-color="rgb(121,121,255)"/></linearGradient>
        <linearGradient id="1415337035637102gp17" x1="460" y1="0" x2="472" y2="0" gradientUnits="userSpaceOnUse"><stop offset="0%" stop-color="rgb(255,255,255)"/><stop offset="100%" stop-color="rgb(255,85,85)"/></linearGradient>
        <clipPath id="1415337035637102clip-0"><path d="M 0 0 L 800 0 L 800 600 L 0 600 L 0 0 Z "/></clipPath>
        <clipPath id="1415337035637102clip-1"><path d="M 298.05 258.95 L 298.05 1058.95 L -301.95 1058.95 L -301.95 258.95 L 298.05 258.95 Z "/></clipPath>
        <clipPath id="1415337035637102clip-2"><path d="M 57 35 L 57 522 L 788 522 L 788 35 Z "/></clipPath>
    </defs>
    <rect x="0" y="0" width="800" height="600" style="fill: rgb(255,255,255); fill-opacity: 1.0" transform="matrix(1,0,0,1,0,0)" clip-path="url(#1415337035637102clip-0)"/><g transform="matrix(1,0,0,1,0,0)"><text x="339" y="21.01" style="fill: rgb(0,0,0); fill-opacity: 1.0; font-family: Tahoma; font-size: 20px; font-weight: bold;" clip-path="url(#1415337035637102clip-0)">Stacked Bar</text></g><rect x="362.5" y="576.52" width="75" height="22.48" style="fill: rgb(255,255,255); fill-opacity: 1.0" transform="matrix(1,0,0,1,0,0)" clip-path="url(#1415337035637102clip-0)"/><line x1="363" y1="577.02" x2="437" y2="577.02" style="stroke-width: 1.0;stroke: rgb(0,0,0);stroke-opacity: 1.0;stroke-linecap: square;shape-rendering:crispEdges;" transform="matrix(1,0,0,1,0,0)" clip-path="url(#1415337035637102clip-0)"/><line x1="363" y1="598.5" x2="437" y2="598.5" style="stroke-width: 1.0;stroke: rgb(0,0,0);stroke-opacity: 1.0;stroke-linecap: square;shape-rendering:crispEdges;" transform="matrix(1,0,0,1,0,0)" clip-path="url(#1415337035637102clip-0)"/><line x1="363" y1="598.5" x2="363" y2="577.02" style="stroke-width: 1.0;stroke: rgb(0,0,0);stroke-opacity: 1.0;stroke-linecap: square;shape-rendering:crispEdges;" transform="matrix(1,0,0,1,0,0)" clip-path="url(#1415337035637102clip-0)"/><line x1="437" y1="598.5" x2="437" y2="577.02" style="stroke-width: 1.0;stroke: rgb(0,0,0);stroke-opacity: 1.0;stroke-linecap: square;shape-rendering:crispEdges;" transform="matrix(1,0,0,1,0,0)" clip-path="url(#1415337035637102clip-0)"/><g style="fill: rgb(255,85,85); fill-opacity: 1.0; stroke: none" transform="matrix(1,0,0,1,0,0)" clip-path="url(#1415337035637102clip-0)"><path d="M 366.5 583.76 L 374.5 583.76 L 374.5 591.76 L 366.5 591.76 L 366.5 583.76 Z "/></g><g transform="matrix(1,0,0,1,0,0)"><text x="378.5" y="592.52" style="fill: rgb(64,64,64); fill-opacity: 1.0; font-family: Tahoma; font-size: 12px;" clip-path="url(#1415337035637102clip-0)">Foo</text></g><g style="fill: rgb(85,85,255); fill-opacity: 1.0; stroke: none" transform="matrix(1,0,0,1,0,0)" clip-path="url(#1415337035637102clip-0)"><path d="M 404.5 583.76 L 412.5 583.76 L 412.5 591.76 L 404.5 591.76 L 404.5 583.76 Z "/></g><g transform="matrix(1,0,0,1,0,0)"><text x="416.5" y="592.52" style="fill: rgb(64,64,64); fill-opacity: 1.0; font-family: Tahoma; font-size: 12px;" clip-path="url(#1415337035637102clip-0)">Bar</text></g><rect x="57" y="35" width="731" height="487" style="fill: rgb(192,192,192); fill-opacity: 1.0" transform="matrix(1,0,0,1,0,0)" clip-path="url(#1415337035637102clip-0)"/><line x1="57" y1="526" x2="788" y2="526" style="stroke-width: 0.5;stroke: rgb(128,128,128);stroke-opacity: 1.0;stroke-linecap: square;shape-rendering:crispEdges;" transform="matrix(1,0,0,1,0,0)" clip-path="url(#1415337035637102clip-0)"/><line x1="157.51" y1="526" x2="157.51" y2="526" style="stroke-width: 0.5;stroke: rgb(128,128,128);stroke-opacity: 1.0;stroke-linecap: square;shape-rendering:crispEdges;" transform="matrix(1,0,0,1,0,0)" clip-path="url(#1415337035637102clip-0)"/><line x1="157.51" y1="526" x2="157.51" y2="528" style="stroke-width: 0.5;stroke: rgb(128,128,128);stroke-opacity: 1.0;stroke-linecap: square;shape-rendering:crispEdges;" transform="matrix(1,0,0,1,0,0)" clip-path="url(#1415337035637102clip-0)"/><line x1="334.17" y1="526" x2="334.17" y2="526" style="stroke-width: 0.5;stroke: rgb(128,128,128);stroke-opacity: 1.0;stroke-linecap: square;shape-rendering:crispEdges;" transform="matrix(1,0,0,1,0,0)" clip-path="url(#1415337035637102clip-0)"/><line x1="334.17" y1="526" x2="334.17" y2="528" style="stroke-width: 0.5;stroke: rgb(128,128,128);stroke-opacity: 1.0;stroke-linecap: square;shape-rendering:crispEdges;" transform="matrix(1,0,0,1,0,0)" clip-path="url(#1415337035637102clip-0)"/><line x1="510.83" y1="526" x2="510.83" y2="526" style="stroke-width: 0.5;stroke: rgb(128,128,128);stroke-opacity: 1.0;stroke-linecap: square;shape-rendering:crispEdges;" transform="matrix(1,0,0,1,0,0)" clip-path="url(#1415337035637102clip-0)"/><line x1="510.83" y1="526" x2="510.83" y2="528" style="stroke-width: 0.5;stroke: rgb(128,128,128);stroke-opacity: 1.0;stroke-linecap: square;shape-rendering:crispEdges;" transform="matrix(1,0,0,1,0,0)" clip-path="url(#1415337035637102clip-0)"/><line x1="687.49" y1="526" x2="687.49" y2="526" style="stroke-width: 0.5;stroke: rgb(128,128,128);stroke-opacity: 1.0;stroke-linecap: square;shape-rendering:crispEdges;" transform="matrix(1,0,0,1,0,0)" clip-path="url(#1415337035637102clip-0)"/><line x1="687.49" y1="526" x2="687.49" y2="528" style="stroke-width: 0.5;stroke: rgb(128,128,128);stroke-opacity: 1.0;stroke-linecap: square;shape-rendering:crispEdges;" transform="matrix(1,0,0,1,0,0)" clip-path="url(#1415337035637102clip-0)"/><g transform="matrix(1,0,0,1,0,0)"><text x="154.01" y="544.01" style="fill: rgb(64,64,64); fill-opacity: 1.0; font-family: Tahoma; font-size: 12px;" clip-path="url(#1415337035637102clip-0)">A</text></g><g transform="matrix(1,0,0,1,0,0)"><text x="330.67" y="544.01" style="fill: rgb(64,64,64); fill-opacity: 1.0; font-family: Tahoma; font-size: 12px;" clip-path="url(#1415337035637102clip-0)">B</text></g><g transform="matrix(1,0,0,1,0,0)"><text x="507.33" y="544.01" style="fill: rgb(64,64,64); fill-opacity: 1.0; font-family: Tahoma; font-size: 12px;" clip-path="url(#1415337035637102clip-0)">C</text></g><g transform="matrix(1,0,0,1,0,0)"><text x="683.49" y="544.01" style="fill: rgb(64,64,64); fill-opacity: 1.0; font-family: Tahoma; font-size: 12px;" clip-path="url(#1415337035637102clip-0)">D</text></g><g transform="matrix(1,0,0,1,0,0)"><text x="400.5" y="567.49" style="fill: rgb(64,64,64); fill-opacity: 1.0; font-family: Tahoma; font-size: 14px; font-weight: bold;" clip-path="url(#1415337035637102clip-0)">Wizzle</text></g><line x1="53" y1="35" x2="53" y2="522" style="stroke-width: 0.5;stroke: rgb(128,128,128);stroke-opacity: 1.0;stroke-linecap: square;shape-rendering:crispEdges;" transform="matrix(1,0,0,1,0,0)" clip-path="url(#1415337035637102clip-0)"/><g transform="matrix(1,0,0,1,0,0)"><text x="40" y="526.76" style="fill: rgb(64,64,64); fill-opacity: 1.0; font-family: Tahoma; font-size: 12px;" clip-path="url(#1415337035637102clip-0)">0</text></g><line x1="51" y1="522" x2="53" y2="522" style="stroke-width: 0.5;stroke: rgb(128,128,128);stroke-opacity: 1.0;stroke-linecap: square;shape-rendering:crispEdges;" transform="matrix(1,0,0,1,0,0)" clip-path="url(#1415337035637102clip-0)"/><g transform="matrix(1,0,0,1,0,0)"><text x="40" y="495.84" style="fill: rgb(64,64,64); fill-opacity: 1.0; font-family: Tahoma; font-size: 12px;" clip-path="url(#1415337035637102clip-0)">2</text></g><line x1="51" y1="491.08" x2="53" y2="491.08" style="stroke-width: 0.5;stroke: rgb(128,128,128);stroke-opacity: 1.0;stroke-linecap: square;shape-rendering:crispEdges;" transform="matrix(1,0,0,1,0,0)" clip-path="url(#1415337035637102clip-0)"/><g transform="matrix(1,0,0,1,0,0)"><text x="40" y="464.92" style="fill: rgb(64,64,64); fill-opacity: 1.0; font-family: Tahoma; font-size: 12px;" clip-path="url(#1415337035637102clip-0)">4</text></g><line x1="51" y1="460.16" x2="53" y2="460.16" style="stroke-width: 0.5;stroke: rgb(128,128,128);stroke-opacity: 1.0;stroke-linecap: square;shape-rendering:crispEdges;" transform="matrix(1,0,0,1,0,0)" clip-path="url(#1415337035637102clip-0)"/><g transform="matrix(1,0,0,1,0,0)"><text x="40" y="434" style="fill: rgb(64,64,64); fill-opacity: 1.0; font-family: Tahoma; font-size: 12px;" clip-path="url(#1415337035637102clip-0)">6</text></g><line x1="51" y1="429.24" x2="53" y2="429.24" style="stroke-width: 0.5;stroke: rgb(128,128,128);stroke-opacity: 1.0;stroke-linecap: square;shape-rendering:crispEdges;" transform="matrix(1,0,0,1,0,0)" clip-path="url(#1415337035637102clip-0)"/><g transform="matrix(1,0,0,1,0,0)"><text x="40" y="403.08" style="fill: rgb(64,64,64); fill-opacity: 1.0; font-family: Tahoma; font-size: 12px;" clip-path="url(#1415337035637102clip-0)">8</text></g><line x1="51" y1="398.32" x2="53" y2="398.32" style="stroke-width: 0.5;stroke: rgb(128,128,128);stroke-opacity: 1.0;stroke-linecap: square;shape-rendering:crispEdges;" transform="matrix(1,0,0,1,0,0)" clip-path="url(#1415337035637102clip-0)"/><g transform="matrix(1,0,0,1,0,0)"><text x="33" y="372.16" style="fill: rgb(64,64,64); fill-opacity: 1.0; font-family: Tahoma; font-size: 12px;" clip-path="url(#1415337035637102clip-0)">10</text></g><line x1="51" y1="367.4" x2="53" y2="367.4" style="stroke-width: 0.5;stroke: rgb(128,128,128);stroke-opacity: 1.0;stroke-linecap: square;shape-rendering:crispEdges;" transform="matrix(1,0,0,1,0,0)" clip-path="url(#1415337035637102clip-0)"/><g transform="matrix(1,0,0,1,0,0)"><text x="33" y="341.24" style="fill: rgb(64,64,64); fill-opacity: 1.0; font-family: Tahoma; font-size: 12px;" clip-path="url(#1415337035637102clip-0)">12</text></g><line x1="51" y1="336.48" x2="53" y2="336.48" style="stroke-width: 0.5;stroke: rgb(128,128,128);stroke-opacity: 1.0;stroke-linecap: square;shape-rendering:crispEdges;" transform="matrix(1,0,0,1,0,0)" clip-path="url(#1415337035637102clip-0)"/><g transform="matrix(1,0,0,1,0,0)"><text x="33" y="310.32" style="fill: rgb(64,64,64); fill-opacity: 1.0; font-family: Tahoma; font-size: 12px;" clip-path="url(#1415337035637102clip-0)">14</text></g><line x1="51" y1="305.56" x2="53" y2="305.56" style="stroke-width: 0.5;stroke: rgb(128,128,128);stroke-opacity: 1.0;stroke-linecap: square;shape-rendering:crispEdges;" transform="matrix(1,0,0,1,0,0)" clip-path="url(#1415337035637102clip-0)"/><g transform="matrix(1,0,0,1,0,0)"><text x="33" y="279.4" style="fill: rgb(64,64,64); fill-opacity: 1.0; font-family: Tahoma; font-size: 12px;" clip-path="url(#1415337035637102clip-0)">16</text></g><line x1="51" y1="274.63" x2="53" y2="274.63" style="stroke-width: 0.5;stroke: rgb(128,128,128);stroke-opacity: 1.0;stroke-linecap: square;shape-rendering:crispEdges;" transform="matrix(1,0,0,1,0,0)" clip-path="url(#1415337035637102clip-0)"/><g transform="matrix(1,0,0,1,0,0)"><text x="33" y="248.48" style="fill: rgb(64,64,64); fill-opacity: 1.0; font-family: Tahoma; font-size: 12px;" clip-path="url(#1415337035637102clip-0)">18</text></g><line x1="51" y1="243.71" x2="53" y2="243.71" style="stroke-width: 0.5;stroke: rgb(128,128,128);stroke-opacity: 1.0;stroke-linecap: square;shape-rendering:crispEdges;" transform="matrix(1,0,0,1,0,0)" clip-path="url(#1415337035637102clip-0)"/><g transform="matrix(1,0,0,1,0,0)"><text x="33" y="217.56" style="fill: rgb(64,64,64); fill-opacity: 1.0; font-family: Tahoma; font-size: 12px;" clip-path="url(#1415337035637102clip-0)">20</text></g><line x1="51" y1="212.79" x2="53" y2="212.79" style="stroke-width: 0.5;stroke: rgb(128,128,128);stroke-opacity: 1.0;stroke-linecap: square;shape-rendering:crispEdges;" transform="matrix(1,0,0,1,0,0)" clip-path="url(#1415337035637102clip-0)"/><g transform="matrix(1,0,0,1,0,0)"><text x="33" y="186.64" style="fill: rgb(64,64,64); fill-opacity: 1.0; font-family: Tahoma; font-size: 12px;" clip-path="url(#1415337035637102clip-0)">22</text></g><line x1="51" y1="181.87" x2="53" y2="181.87" style="stroke-width: 0.5;stroke: rgb(128,128,128);stroke-opacity: 1.0;stroke-linecap: square;shape-rendering:crispEdges;" transform="matrix(1,0,0,1,0,0)" clip-path="url(#1415337035637102clip-0)"/><g transform="matrix(1,0,0,1,0,0)"><text x="33" y="155.72" style="fill: rgb(64,64,64); fill-opacity: 1.0; font-family: Tahoma; font-size: 12px;" clip-path="url(#1415337035637102clip-0)">24</text></g><line x1="51" y1="150.95" x2="53" y2="150.95" style="stroke-width: 0.5;stroke: rgb(128,128,128);stroke-opacity: 1.0;stroke-linecap: square;shape-rendering:crispEdges;" transform="matrix(1,0,0,1,0,0)" clip-path="url(#1415337035637102clip-0)"/><g transform="matrix(1,0,0,1,0,0)"><text x="33" y="124.8" style="fill: rgb(64,64,64); fill-opacity: 1.0; font-family: Tahoma; font-size: 12px;" clip-path="url(#1415337035637102clip-0)">26</text></g><line x1="51" y1="120.03" x2="53" y2="120.03" style="stroke-width: 0.5;stroke: rgb(128,128,128);stroke-opacity: 1.0;stroke-linecap: square;shape-rendering:crispEdges;" transform="matrix(1,0,0,1,0,0)" clip-path="url(#1415337035637102clip-0)"/><g transform="matrix(1,0,0,1,0,0)"><text x="33" y="93.87" style="fill: rgb(64,64,64); fill-opacity: 1.0; font-family: Tahoma; font-size: 12px;" clip-path="url(#1415337035637102clip-0)">28</text></g><line x1="51" y1="89.11" x2="53" y2="89.11" style="stroke-width: 0.5;stroke: rgb(128,128,128);stroke-opacity: 1.0;stroke-linecap: square;shape-rendering:crispEdges;" transform="matrix(1,0,0,1,0,0)" clip-path="url(#1415337035637102clip-0)"/><g transform="matrix(1,0,0,1,0,0)"><text x="33" y="62.95" style="fill: rgb(64,64,64); fill-opacity: 1.0; font-family: Tahoma; font-size: 12px;" clip-path="url(#1415337035637102clip-0)">30</text></g><line x1="51" y1="58.19" x2="53" y2="58.19" style="stroke-width: 0.5;stroke: rgb(128,128,128);stroke-opacity: 1.0;stroke-linecap: square;shape-rendering:crispEdges;" transform="matrix(1,0,0,1,0,0)" clip-path="url(#1415337035637102clip-0)"/><g transform="matrix(0,-1,1,0,-258.949219,298.050781)"><text x="-8.45" y="284.06" style="fill: rgb(64,64,64); fill-opacity: 1.0; font-family: Tahoma; font-size: 14px; font-weight: bold;" clip-path="url(#1415337035637102clip-1)">Amount</text></g><line x1="57" y1="522" x2="788" y2="522" style="stroke-width: 0.5;stroke: rgb(255,255,255);stroke-opacity: 1.0;stroke-linejoin: bevel;stroke-dasharray: 2.0, 2.0;shape-rendering:crispEdges;" transform="matrix(1,0,0,1,0,0)" clip-path="url(#1415337035637102clip-2)"/><line x1="57" y1="491.08" x2="788" y2="491.08" style="stroke-width: 0.5;stroke: rgb(255,255,255);stroke-opacity: 1.0;stroke-linejoin: bevel;stroke-dasharray: 2.0, 2.0;shape-rendering:crispEdges;" transform="matrix(1,0,0,1,0,0)" clip-path="url(#1415337035637102clip-2)"/><line x1="57" y1="460.16" x2="788" y2="460.16" style="stroke-width: 0.5;stroke: rgb(255,255,255);stroke-opacity: 1.0;stroke-linejoin: bevel;stroke-dasharray: 2.0, 2.0;shape-rendering:crispEdges;" transform="matrix(1,0,0,1,0,0)" clip-path="url(#1415337035637102clip-2)"/><line x1="57" y1="429.24" x2="788" y2="429.24" style="stroke-width: 0.5;stroke: rgb(255,255,255);stroke-opacity: 1.0;stroke-linejoin: bevel;stroke-dasharray: 2.0, 2.0;shape-rendering:crispEdges;" transform="matrix(1,0,0,1,0,0)" clip-path="url(#1415337035637102clip-2)"/><line x1="57" y1="398.32" x2="788" y2="398.32" style="stroke-width: 0.5;stroke: rgb(255,255,255);stroke-opacity: 1.0;stroke-linejoin: bevel;stroke-dasharray: 2.0, 2.0;shape-rendering:crispEdges;" transform="matrix(1,0,0,1,0,0)" clip-path="url(#1415337035637102clip-2)"/><line x1="57" y1="367.4" x2="788" y2="367.4" style="stroke-width: 0.5;stroke: rgb(255,255,255);stroke-opacity: 1.0;stroke-linejoin: bevel;stroke-dasharray: 2.0, 2.0;shape-rendering:crispEdges;" transform="matrix(1,0,0,1,0,0)" clip-path="url(#1415337035637102clip-2)"/><line x1="57" y1="336.48" x2="788" y2="336.48" style="stroke-width: 0.5;stroke: rgb(255,255,255);stroke-opacity: 1.0;stroke-linejoin: bevel;stroke-dasharray: 2.0, 2.0;shape-rendering:crispEdges;" transform="matrix(1,0,0,1,0,0)" clip-path="url(#1415337035637102clip-2)"/><line x1="57" y1="305.56" x2="788" y2="305.56" style="stroke-width: 0.5;stroke: rgb(255,255,255);stroke-opacity: 1.0;stroke-linejoin: bevel;stroke-dasharray: 2.0, 2.0;shape-rendering:crispEdges;" transform="matrix(1,0,0,1,0,0)" clip-path="url(#1415337035637102clip-2)"/><line x1="57" y1="274.63" x2="788" y2="274.63" style="stroke-width: 0.5;stroke: rgb(255,255,255);stroke-opacity: 1.0;stroke-linejoin: bevel;stroke-dasharray: 2.0, 2.0;shape-rendering:crispEdges;" transform="matrix(1,0,0,1,0,0)" clip-path="url(#1415337035637102clip-2)"/><line x1="57" y1="243.71" x2="788" y2="243.71" style="stroke-width: 0.5;stroke: rgb(255,255,255);stroke-opacity: 1.0;stroke-linejoin: bevel;stroke-dasharray: 2.0, 2.0;shape-rendering:crispEdges;" transform="matrix(1,0,0,1,0,0)" clip-path="url(#1415337035637102clip-2)"/><line x1="57" y1="212.79" x2="788" y2="212.79" style="stroke-width: 0.5;stroke: rgb(255,255,255);stroke-opacity: 1.0;stroke-linejoin: bevel;stroke-dasharray: 2.0, 2.0;shape-rendering:crispEdges;" transform="matrix(1,0,0,1,0,0)" clip-path="url(#1415337035637102clip-2)"/><line x1="57" y1="181.87" x2="788" y2="181.87" style="stroke-width: 0.5;stroke: rgb(255,255,255);stroke-opacity: 1.0;stroke-linejoin: bevel;stroke-dasharray: 2.0, 2.0;shape-rendering:crispEdges;" transform="matrix(1,0,0,1,0,0)" clip-path="url(#1415337035637102clip-2)"/><line x1="57" y1="150.95" x2="788" y2="150.95" style="stroke-width: 0.5;stroke: rgb(255,255,255);stroke-opacity: 1.0;stroke-linejoin: bevel;stroke-dasharray: 2.0, 2.0;shape-rendering:crispEdges;" transform="matrix(1,0,0,1,0,0)" clip-path="url(#1415337035637102clip-2)"/><line x1="57" y1="120.03" x2="788" y2="120.03" style="stroke-width: 0.5;stroke: rgb(255,255,255);stroke-opacity: 1.0;stroke-linejoin: bevel;stroke-dasharray: 2.0, 2.0;shape-rendering:crispEdges;" transform="matrix(1,0,0,1,0,0)" clip-path="url(#1415337035637102clip-2)"/><line x1="57" y1="89.11" x2="788" y2="89.11" style="stroke-width: 0.5;stroke: rgb(255,255,255);stroke-opacity: 1.0;stroke-linejoin: bevel;stroke-dasharray: 2.0, 2.0;shape-rendering:crispEdges;" transform="matrix(1,0,0,1,0,0)" clip-path="url(#1415337035637102clip-2)"/><line x1="57" y1="58.19" x2="788" y2="58.19" style="stroke-width: 0.5;stroke: rgb(255,255,255);stroke-opacity: 1.0;stroke-linejoin: bevel;stroke-dasharray: 2.0, 2.0;shape-rendering:crispEdges;" transform="matrix(1,0,0,1,0,0)" clip-path="url(#1415337035637102clip-2)"/><rect x="93.55" y="367.4" width="12.45" height="154.6" style="fill: url(#1415337035637102gp0); fill-opacity: 1.0" transform="matrix(1,0,0,1,0,0)" clip-path="url(#1415337035637102clip-2)"/><rect x="106" y="367.4" width="13" height="154.6" style="fill: url(#1415337035637102gp1); fill-opacity: 1.0" transform="matrix(1,0,0,1,0,0)" clip-path="url(#1415337035637102clip-2)"/><rect x="119" y="367.4" width="77" height="154.6" style="fill: url(#1415337035637102gp2); fill-opacity: 1.0" transform="matrix(1,0,0,1,0,0)" clip-path="url(#1415337035637102clip-2)"/><rect x="196" y="367.4" width="25.48" height="154.6" style="fill: url(#1415337035637102gp3); fill-opacity: 1.0" transform="matrix(1,0,0,1,0,0)" clip-path="url(#1415337035637102clip-2)"/><rect x="93.55" y="58.19" width="12.45" height="309.21" style="fill: url(#1415337035637102gp4); fill-opacity: 1.0" transform="matrix(1,0,0,1,0,0)" clip-path="url(#1415337035637102clip-2)"/><rect x="106" y="58.19" width="13" height="309.21" style="fill: url(#1415337035637102gp5); fill-opacity: 1.0" transform="matrix(1,0,0,1,0,0)" clip-path="url(#1415337035637102clip-2)"/><rect x="119" y="58.19" width="77" height="309.21" style="fill: url(#1415337035637102gp6); fill-opacity: 1.0" transform="matrix(1,0,0,1,0,0)" clip-path="url(#1415337035637102clip-2)"/><rect x="196" y="58.19" width="25.48" height="309.21" style="fill: url(#1415337035637102gp7); fill-opacity: 1.0" transform="matrix(1,0,0,1,0,0)" clip-path="url(#1415337035637102clip-2)"/><rect x="270.21" y="336.48" width="12.79" height="185.52" style="fill: url(#1415337035637102gp8); fill-opacity: 1.0" transform="matrix(1,0,0,1,0,0)" clip-path="url(#1415337035637102clip-2)"/><rect x="283" y="336.48" width="13" height="185.52" style="fill: url(#1415337035637102gp9); fill-opacity: 1.0" transform="matrix(1,0,0,1,0,0)" clip-path="url(#1415337035637102clip-2)"/><rect x="296" y="336.48" width="77" height="185.52" style="fill: url(#1415337035637102gp10); fill-opacity: 1.0" transform="matrix(1,0,0,1,0,0)" clip-path="url(#1415337035637102clip-2)"/><rect x="373" y="336.48" width="25.13" height="185.52" style="fill: url(#1415337035637102gp11); fill-opacity: 1.0" transform="matrix(1,0,0,1,0,0)" clip-path="url(#1415337035637102clip-2)"/><rect x="270.21" y="150.95" width="12.79" height="185.52" style="fill: url(#1415337035637102gp12); fill-opacity: 1.0" transform="matrix(1,0,0,1,0,0)" clip-path="url(#1415337035637102clip-2)"/><rect x="283" y="150.95" width="13" height="185.52" style="fill: url(#1415337035637102gp13); fill-opacity: 1.0" transform="matrix(1,0,0,1,0,0)" clip-path="url(#1415337035637102clip-2)"/><rect x="296" y="150.95" width="77" height="185.52" style="fill: url(#1415337035637102gp14); fill-opacity: 1.0" transform="matrix(1,0,0,1,0,0)" clip-path="url(#1415337035637102clip-2)"/><rect x="373" y="150.95" width="25.13" height="185.52" style="fill: url(#1415337035637102gp15); fill-opacity: 1.0" transform="matrix(1,0,0,1,0,0)" clip-path="url(#1415337035637102clip-2)"/><rect x="446.87" y="321.02" width="13.13" height="200.98" style="fill: url(#1415337035637102gp16); fill-opacity: 1.0" transform="matrix(1,0,0,1,0,0)" clip-path="url(#1415337035637102clip-2)"/><rect x="460" y="321.02" width="12" height="200.98" style="fill: url(#1415337035637102gp17); fill-opacity: 1.0" transform="matrix(1,0,0,1,0,0)" clip-path="url(#1415337035637102clip-2)"/><rect x="472" y="321.02" width="77" height="200.98" style="fill: url(#1415337035637102gp18); fill-opacity: 1.0" transform="matrix(1,0,0,1,0,0)" clip-path="url(#1415337035637102clip-2)"/><rect x="549" y="321.02" width="25.79" height="200.98" style="fill: url(#1415337035637102gp19); fill-opacity: 1.0" transform="matrix(1,0,0,1,0,0)" clip-path="url(#1415337035637102clip-2)"/><rect x="446.87" y="120.03" width="13.13" height="200.98" style="fill: url(#1415337035637102gp20); fill-opacity: 1.0" transform="matrix(1,0,0,1,0,0)" clip-path="url(#1415337035637102clip-2)"/><rect x="460" y="120.03" width="12" height="200.98" style="fill: url(#1415337035637102gp21); fill-opacity: 1.0" transform="matrix(1,0,0,1,0,0)" clip-path="url(#1415337035637102clip-2)"/><rect x="472" y="120.03" width="77" height="200.98" style="fill: url(#1415337035637102gp22); fill-opacity: 1.0" transform="matrix(1,0,0,1,0,0)" clip-path="url(#1415337035637102clip-2)"/><rect x="549" y="120.03" width="25.79" height="200.98" style="fill: url(#1415337035637102gp23); fill-opacity: 1.0" transform="matrix(1,0,0,1,0,0)" clip-path="url(#1415337035637102clip-2)"/><rect x="623.53" y="305.56" width="12.47" height="216.44" style="fill: url(#1415337035637102gp24); fill-opacity: 1.0" transform="matrix(1,0,0,1,0,0)" clip-path="url(#1415337035637102clip-2)"/><rect x="636" y="305.56" width="13" height="216.44" style="fill: url(#1415337035637102gp25); fill-opacity: 1.0" transform="matrix(1,0,0,1,0,0)" clip-path="url(#1415337035637102clip-2)"/><rect x="649" y="305.56" width="77" height="216.44" style="fill: url(#1415337035637102gp26); fill-opacity: 1.0" transform="matrix(1,0,0,1,0,0)" clip-path="url(#1415337035637102clip-2)"/><rect x="726" y="305.56" width="25.45" height="216.44" style="fill: url(#1415337035637102gp27); fill-opacity: 1.0" transform="matrix(1,0,0,1,0,0)" clip-path="url(#1415337035637102clip-2)"/><rect x="623.53" y="89.11" width="12.47" height="216.44" style="fill: url(#1415337035637102gp28); fill-opacity: 1.0" transform="matrix(1,0,0,1,0,0)" clip-path="url(#1415337035637102clip-2)"/><rect x="636" y="89.11" width="13" height="216.44" style="fill: url(#1415337035637102gp29); fill-opacity: 1.0" transform="matrix(1,0,0,1,0,0)" clip-path="url(#1415337035637102clip-2)"/><rect x="649" y="89.11" width="77" height="216.44" style="fill: url(#1415337035637102gp30); fill-opacity: 1.0" transform="matrix(1,0,0,1,0,0)" clip-path="url(#1415337035637102clip-2)"/><rect x="726" y="89.11" width="25.45" height="216.44" style="fill: url(#1415337035637102gp31); fill-opacity: 1.0" transform="matrix(1,0,0,1,0,0)" clip-path="url(#1415337035637102clip-2)"/><rect x="57" y="35" width="731" height="487" style="stroke-width: 0.5;stroke: rgb(0,0,0);stroke-opacity: 1.0;stroke-linecap: round;stroke-linejoin: round;shape-rendering:crispEdges;; fill: none" transform="matrix(1,0,0,1,0,0)" clip-path="url(#1415337035637102clip-0)"/></svg>
